<mxfile host="app.diagrams.net" modified="2024-03-11T14:57:22.535Z" agent="Mozilla/5.0 (X11; Linux x86_64) AppleWebKit/537.36 (KHTML, like Gecko) Chrome/122.0.0.0 Safari/537.36" etag="Eeza0nZt87nuiMcI0lg4" version="24.0.2" type="device">
  <diagram name="Page-1" id="p-SouLgRg3kwMv0pZOvw">
    <mxGraphModel dx="1434" dy="751" grid="1" gridSize="10" guides="1" tooltips="1" connect="1" arrows="1" fold="1" page="1" pageScale="1" pageWidth="850" pageHeight="1100" math="0" shadow="0">
      <root>
        <mxCell id="0" />
        <mxCell id="1" parent="0" />
        <mxCell id="Uqw8qJNZfMgFVZG7fS5e-1" value="&lt;b&gt;&lt;font style=&quot;font-size: 15px;&quot;&gt;Esperar por la señal RF&lt;/font&gt;&lt;/b&gt;" style="rounded=0;whiteSpace=wrap;html=1;fillColor=#2659FF;" vertex="1" parent="1">
          <mxGeometry x="290" y="40" width="220" height="110" as="geometry" />
        </mxCell>
        <mxCell id="Uqw8qJNZfMgFVZG7fS5e-2" value="&lt;b&gt;&lt;font style=&quot;font-size: 15px;&quot;&gt;Parpadear LED de armado(rojo) y generar beep de armado durante 30 segundos&lt;/font&gt;&lt;/b&gt;" style="rounded=0;whiteSpace=wrap;html=1;fillColor=#2659FF;" vertex="1" parent="1">
          <mxGeometry x="98" y="560" width="143" height="110" as="geometry" />
        </mxCell>
        <mxCell id="Uqw8qJNZfMgFVZG7fS5e-4" value="&lt;b&gt;&lt;font style=&quot;font-size: 15px;&quot;&gt;Señal de armado?&lt;/font&gt;&lt;/b&gt;" style="rhombus;whiteSpace=wrap;html=1;fillColor=#3068FF;" vertex="1" parent="1">
          <mxGeometry x="295" y="200" width="210" height="160" as="geometry" />
        </mxCell>
        <mxCell id="Uqw8qJNZfMgFVZG7fS5e-5" value="&lt;span style=&quot;font-size: 15px;&quot;&gt;&lt;b&gt;Flag desarmado&lt;/b&gt;&lt;/span&gt;&lt;div&gt;&lt;span style=&quot;font-size: 15px;&quot;&gt;&lt;b&gt;=True?&lt;/b&gt;&lt;/span&gt;&lt;/div&gt;" style="rhombus;whiteSpace=wrap;html=1;fillColor=#3068FF;" vertex="1" parent="1">
          <mxGeometry x="65" y="361" width="210" height="160" as="geometry" />
        </mxCell>
        <mxCell id="Uqw8qJNZfMgFVZG7fS5e-6" value="&lt;span style=&quot;font-size: 15px;&quot;&gt;&lt;b&gt;Señal desarmado?&lt;/b&gt;&lt;/span&gt;" style="rhombus;whiteSpace=wrap;html=1;fillColor=#3068FF;" vertex="1" parent="1">
          <mxGeometry x="590" y="200" width="210" height="160" as="geometry" />
        </mxCell>
        <mxCell id="Uqw8qJNZfMgFVZG7fS5e-7" value="&lt;b&gt;&lt;font style=&quot;font-size: 15px;&quot;&gt;Sistema armado&lt;/font&gt;&lt;/b&gt;&lt;div&gt;&lt;span style=&quot;font-size: 15px;&quot;&gt;&lt;b&gt;Flag armado=True&lt;br&gt;&lt;/b&gt;&lt;/span&gt;&lt;div&gt;&lt;b&gt;&lt;font style=&quot;font-size: 15px;&quot;&gt;Encender de manera permanente el LED&lt;/font&gt;&lt;/b&gt;&lt;/div&gt;&lt;/div&gt;" style="rounded=0;whiteSpace=wrap;html=1;fillColor=#2659FF;" vertex="1" parent="1">
          <mxGeometry x="98" y="720" width="143" height="110" as="geometry" />
        </mxCell>
        <mxCell id="Uqw8qJNZfMgFVZG7fS5e-8" value="" style="endArrow=classic;html=1;rounded=0;exitX=0;exitY=0.5;exitDx=0;exitDy=0;" edge="1" parent="1" source="Uqw8qJNZfMgFVZG7fS5e-4">
          <mxGeometry width="50" height="50" relative="1" as="geometry">
            <mxPoint x="400" y="520" as="sourcePoint" />
            <mxPoint x="170" y="360" as="targetPoint" />
            <Array as="points">
              <mxPoint x="170" y="280" />
            </Array>
          </mxGeometry>
        </mxCell>
        <mxCell id="Uqw8qJNZfMgFVZG7fS5e-10" value="" style="endArrow=classic;html=1;rounded=0;exitX=0.5;exitY=1;exitDx=0;exitDy=0;entryX=0.5;entryY=0;entryDx=0;entryDy=0;" edge="1" parent="1" source="Uqw8qJNZfMgFVZG7fS5e-1" target="Uqw8qJNZfMgFVZG7fS5e-4">
          <mxGeometry width="50" height="50" relative="1" as="geometry">
            <mxPoint x="560" y="30" as="sourcePoint" />
            <mxPoint x="600" y="350" as="targetPoint" />
          </mxGeometry>
        </mxCell>
        <mxCell id="Uqw8qJNZfMgFVZG7fS5e-11" value="" style="endArrow=classic;html=1;rounded=0;exitX=0.5;exitY=1;exitDx=0;exitDy=0;entryX=0.5;entryY=0;entryDx=0;entryDy=0;" edge="1" parent="1" source="Uqw8qJNZfMgFVZG7fS5e-5" target="Uqw8qJNZfMgFVZG7fS5e-2">
          <mxGeometry width="50" height="50" relative="1" as="geometry">
            <mxPoint x="400" y="400" as="sourcePoint" />
            <mxPoint x="450" y="350" as="targetPoint" />
          </mxGeometry>
        </mxCell>
        <mxCell id="Uqw8qJNZfMgFVZG7fS5e-12" value="" style="endArrow=classic;html=1;rounded=0;exitX=0.5;exitY=1;exitDx=0;exitDy=0;" edge="1" parent="1" source="Uqw8qJNZfMgFVZG7fS5e-2">
          <mxGeometry width="50" height="50" relative="1" as="geometry">
            <mxPoint x="167" y="678" as="sourcePoint" />
            <mxPoint x="170" y="720" as="targetPoint" />
          </mxGeometry>
        </mxCell>
        <mxCell id="Uqw8qJNZfMgFVZG7fS5e-13" value="" style="endArrow=classic;html=1;rounded=0;exitX=0.5;exitY=1;exitDx=0;exitDy=0;entryX=0.5;entryY=0;entryDx=0;entryDy=0;" edge="1" parent="1">
          <mxGeometry width="50" height="50" relative="1" as="geometry">
            <mxPoint x="172.5" y="830" as="sourcePoint" />
            <mxPoint x="401" y="40" as="targetPoint" />
            <Array as="points">
              <mxPoint x="171" y="920" />
              <mxPoint x="41" y="920" />
              <mxPoint x="41" y="620" />
              <mxPoint x="41" y="10" />
              <mxPoint x="241" y="10" />
              <mxPoint x="401" y="10" />
            </Array>
          </mxGeometry>
        </mxCell>
        <mxCell id="Uqw8qJNZfMgFVZG7fS5e-15" value="&lt;span style=&quot;font-size: 15px;&quot;&gt;&lt;b&gt;si&lt;/b&gt;&lt;/span&gt;" style="rounded=0;whiteSpace=wrap;html=1;fillColor=#2659FF;" vertex="1" parent="1">
          <mxGeometry x="90" y="510" width="50" height="30" as="geometry" />
        </mxCell>
        <mxCell id="Uqw8qJNZfMgFVZG7fS5e-16" value="&lt;span style=&quot;font-size: 15px;&quot;&gt;&lt;b&gt;no&lt;/b&gt;&lt;/span&gt;" style="rounded=0;whiteSpace=wrap;html=1;fillColor=#2659FF;" vertex="1" parent="1">
          <mxGeometry x="290" y="400" width="50" height="30" as="geometry" />
        </mxCell>
        <mxCell id="Uqw8qJNZfMgFVZG7fS5e-17" value="" style="endArrow=classic;html=1;rounded=0;exitX=1;exitY=0.5;exitDx=0;exitDy=0;" edge="1" parent="1" source="Uqw8qJNZfMgFVZG7fS5e-5">
          <mxGeometry width="50" height="50" relative="1" as="geometry">
            <mxPoint x="400" y="550" as="sourcePoint" />
            <mxPoint x="40" y="920" as="targetPoint" />
            <Array as="points">
              <mxPoint x="360" y="440" />
              <mxPoint x="360" y="960" />
              <mxPoint x="40" y="960" />
            </Array>
          </mxGeometry>
        </mxCell>
        <mxCell id="Uqw8qJNZfMgFVZG7fS5e-18" value="&lt;span style=&quot;font-size: 15px;&quot;&gt;&lt;b&gt;si&lt;/b&gt;&lt;/span&gt;" style="rounded=0;whiteSpace=wrap;html=1;fillColor=#2659FF;" vertex="1" parent="1">
          <mxGeometry x="210" y="240" width="50" height="30" as="geometry" />
        </mxCell>
        <mxCell id="Uqw8qJNZfMgFVZG7fS5e-19" value="&lt;span style=&quot;font-size: 15px;&quot;&gt;&lt;b&gt;no&lt;/b&gt;&lt;/span&gt;" style="rounded=0;whiteSpace=wrap;html=1;fillColor=#2659FF;" vertex="1" parent="1">
          <mxGeometry x="523" y="239" width="50" height="30" as="geometry" />
        </mxCell>
        <mxCell id="Uqw8qJNZfMgFVZG7fS5e-20" value="" style="endArrow=classic;html=1;rounded=0;entryX=0;entryY=0.5;entryDx=0;entryDy=0;exitX=1;exitY=0.5;exitDx=0;exitDy=0;" edge="1" parent="1" source="Uqw8qJNZfMgFVZG7fS5e-4" target="Uqw8qJNZfMgFVZG7fS5e-6">
          <mxGeometry width="50" height="50" relative="1" as="geometry">
            <mxPoint x="400" y="550" as="sourcePoint" />
            <mxPoint x="450" y="500" as="targetPoint" />
          </mxGeometry>
        </mxCell>
        <mxCell id="Uqw8qJNZfMgFVZG7fS5e-21" value="&lt;span style=&quot;font-size: 15px;&quot;&gt;&lt;b&gt;Flag armado&lt;/b&gt;&lt;/span&gt;&lt;div&gt;&lt;span style=&quot;font-size: 15px;&quot;&gt;&lt;b&gt;=True?&lt;/b&gt;&lt;/span&gt;&lt;/div&gt;" style="rhombus;whiteSpace=wrap;html=1;fillColor=#3068FF;" vertex="1" parent="1">
          <mxGeometry x="590" y="420" width="210" height="160" as="geometry" />
        </mxCell>
        <mxCell id="Uqw8qJNZfMgFVZG7fS5e-22" value="" style="endArrow=classic;html=1;rounded=0;entryX=0.5;entryY=0;entryDx=0;entryDy=0;exitX=0.5;exitY=1;exitDx=0;exitDy=0;" edge="1" parent="1" source="Uqw8qJNZfMgFVZG7fS5e-6" target="Uqw8qJNZfMgFVZG7fS5e-21">
          <mxGeometry width="50" height="50" relative="1" as="geometry">
            <mxPoint x="400" y="430" as="sourcePoint" />
            <mxPoint x="450" y="380" as="targetPoint" />
          </mxGeometry>
        </mxCell>
        <mxCell id="Uqw8qJNZfMgFVZG7fS5e-23" value="&lt;b&gt;&lt;font style=&quot;font-size: 15px;&quot;&gt;Sistema desarmado&lt;/font&gt;&lt;/b&gt;&lt;div&gt;&lt;span style=&quot;font-size: 15px;&quot;&gt;&lt;b&gt;Flag armado=False&lt;br&gt;&lt;/b&gt;&lt;/span&gt;&lt;div&gt;&lt;b&gt;&lt;font style=&quot;font-size: 15px;&quot;&gt;Apagar de manera permanente el LED&lt;/font&gt;&lt;/b&gt;&lt;/div&gt;&lt;/div&gt;" style="rounded=0;whiteSpace=wrap;html=1;fillColor=#2659FF;" vertex="1" parent="1">
          <mxGeometry x="623.5" y="640" width="143" height="110" as="geometry" />
        </mxCell>
        <mxCell id="Uqw8qJNZfMgFVZG7fS5e-24" value="" style="endArrow=classic;html=1;rounded=0;entryX=0.5;entryY=0;entryDx=0;entryDy=0;exitX=0.5;exitY=1;exitDx=0;exitDy=0;" edge="1" parent="1" source="Uqw8qJNZfMgFVZG7fS5e-21" target="Uqw8qJNZfMgFVZG7fS5e-23">
          <mxGeometry width="50" height="50" relative="1" as="geometry">
            <mxPoint x="400" y="550" as="sourcePoint" />
            <mxPoint x="450" y="500" as="targetPoint" />
          </mxGeometry>
        </mxCell>
        <mxCell id="Uqw8qJNZfMgFVZG7fS5e-25" value="&lt;span style=&quot;font-size: 15px;&quot;&gt;&lt;b&gt;si&lt;/b&gt;&lt;/span&gt;" style="rounded=0;whiteSpace=wrap;html=1;fillColor=#2659FF;" vertex="1" parent="1">
          <mxGeometry x="630.5" y="370" width="50" height="30" as="geometry" />
        </mxCell>
        <mxCell id="Uqw8qJNZfMgFVZG7fS5e-28" value="&lt;span style=&quot;font-size: 15px;&quot;&gt;&lt;b&gt;no&lt;/b&gt;&lt;/span&gt;" style="rounded=0;whiteSpace=wrap;html=1;fillColor=#2659FF;" vertex="1" parent="1">
          <mxGeometry x="790" y="230" width="50" height="30" as="geometry" />
        </mxCell>
        <mxCell id="Uqw8qJNZfMgFVZG7fS5e-29" value="" style="endArrow=classic;html=1;rounded=0;exitX=1;exitY=0.5;exitDx=0;exitDy=0;" edge="1" parent="1" source="Uqw8qJNZfMgFVZG7fS5e-6">
          <mxGeometry width="50" height="50" relative="1" as="geometry">
            <mxPoint x="400" y="430" as="sourcePoint" />
            <mxPoint x="360" y="960" as="targetPoint" />
            <Array as="points">
              <mxPoint x="840" y="280" />
              <mxPoint x="840" y="400" />
              <mxPoint x="840" y="600" />
              <mxPoint x="840" y="960" />
            </Array>
          </mxGeometry>
        </mxCell>
        <mxCell id="Uqw8qJNZfMgFVZG7fS5e-32" value="&lt;span style=&quot;font-size: 15px;&quot;&gt;&lt;b&gt;si&lt;/b&gt;&lt;/span&gt;" style="rounded=0;whiteSpace=wrap;html=1;fillColor=#2659FF;" vertex="1" parent="1">
          <mxGeometry x="630.5" y="590" width="50" height="30" as="geometry" />
        </mxCell>
        <mxCell id="Uqw8qJNZfMgFVZG7fS5e-33" value="" style="endArrow=classic;html=1;rounded=0;exitX=1;exitY=0.5;exitDx=0;exitDy=0;" edge="1" parent="1" source="Uqw8qJNZfMgFVZG7fS5e-21">
          <mxGeometry width="50" height="50" relative="1" as="geometry">
            <mxPoint x="400" y="790" as="sourcePoint" />
            <mxPoint x="820" y="960" as="targetPoint" />
            <Array as="points">
              <mxPoint x="820" y="500" />
            </Array>
          </mxGeometry>
        </mxCell>
        <mxCell id="Uqw8qJNZfMgFVZG7fS5e-34" value="&lt;span style=&quot;font-size: 15px;&quot;&gt;&lt;b&gt;no&lt;/b&gt;&lt;/span&gt;" style="rounded=0;whiteSpace=wrap;html=1;fillColor=#2659FF;" vertex="1" parent="1">
          <mxGeometry x="790" y="460" width="40" height="30" as="geometry" />
        </mxCell>
      </root>
    </mxGraphModel>
  </diagram>
</mxfile>
